<svg width="208" height="49" viewBox="0 0 208 49" fill="none" xmlns="http://www.w3.org/2000/svg">
<path d="M66.3367 0.372375H0.3396V39.164H66.3367V0.372375Z" fill="#60879A"/>
<path d="M23.024 3.20388H30.1628V25.5281C30.1628 33.6415 25.1853 37.8237 16.4381 37.8237C8.34398 37.8237 3.26636 33.993 3.26636 25.9299V3.20215H10.355V25.2753C10.355 29.4073 12.5664 32.0275 16.3379 32.0275C20.8126 32.0275 23.024 29.9113 23.024 25.5264V3.20215V3.20388Z" fill="#EAEAEA"/>
<path d="M47.7592 36.6669V21.649C47.7592 17.8183 46.6535 16.7602 43.5368 16.7602C40.1177 16.7602 38.4591 18.6755 38.4591 22.4543V36.6652H31.9233V11.8714H38.1568V15.4995C39.665 12.7286 42.1788 11.2168 46.1507 11.2168C50.8759 11.2168 54.3451 14.0898 54.3451 19.4808V36.6652H47.7592V36.6669Z" fill="#EAEAEA"/>
<path d="M56.406 8.89969V2.80212H62.9418V8.89969H56.406ZM56.406 36.6669V11.8731H62.9418V36.6669H56.406Z" fill="#EAEAEA"/>
<path d="M88.5804 13.0819C88.228 9.65472 86.1669 7.99221 81.9444 7.99221C78.0226 7.99221 75.9615 9.40361 75.9615 11.9233C75.9615 14.0396 77.4197 15.2501 81.1393 16.1558C84.9109 17.0632 88.5804 17.9707 91.0441 19.079C93.9604 20.39 96.272 22.456 96.272 27.1924C96.272 34.5507 90.7418 37.8254 82.9482 37.8254C74.7038 37.8254 68.9714 34.1472 68.821 26.6382H75.5572C75.6574 30.0654 78.5237 32.1816 82.9983 32.1816C87.1205 32.1816 89.484 30.4169 89.484 27.4452C89.484 25.4796 88.4785 24.1185 84.3062 23.2128C80.1839 22.3053 77.5181 21.7009 75.1564 20.6428C71.587 19.0305 69.576 16.6112 69.576 12.3788C69.576 6.38167 73.6482 2.099 81.7924 2.099C89.9367 2.099 94.9642 6.68473 95.2164 13.0854H88.5804V13.0819Z" fill="#787878"/>
<path d="M97.1775 48.4083V11.8714H103.463L103.513 14.8951C105.071 12.3753 107.385 11.2168 110.401 11.2168C116.635 11.2168 121.109 16.1558 121.109 24.5203C121.109 32.0292 117.338 37.3198 110.954 37.3198C107.887 37.3198 105.474 36.0591 103.613 33.4389V48.4066H97.1775V48.4083ZM114.471 24.0683C114.471 19.6332 112.158 16.5593 108.891 16.5593C105.624 16.5593 103.361 19.4825 103.361 23.6648C103.361 29.0575 105.222 31.7279 108.841 31.7279C112.663 31.7279 114.471 29.1579 114.471 24.0683Z" fill="#787878"/>
<path d="M138.353 36.6669V21.2974C138.353 17.5689 137.095 16.4086 134.131 16.4086C130.862 16.4086 129.053 19.1293 129.053 22.456V36.6669H122.517V2.80212H129.053V15.0977C130.008 12.881 133.025 11.2168 136.342 11.2168C141.42 11.2168 144.939 14.1902 144.939 19.1293V36.6669H138.353Z" fill="#787878"/>
<path d="M152.831 25.9836C153.031 29.7121 155.144 32.1314 158.361 32.1314C160.472 32.1314 162.333 31.0733 162.786 29.3605H169.522C168.014 34.4502 163.942 37.3232 158.662 37.3232C150.417 37.3232 146.293 32.7877 146.293 23.8171C146.293 16.1575 150.668 11.2185 158.259 11.2185C165.851 11.2185 169.873 16.1575 169.873 25.9836H152.829H152.831ZM163.138 21.8516C163.038 18.1733 160.624 16.4086 158.061 16.4086C155.497 16.4086 153.285 18.4244 153.033 21.8516H163.138Z" fill="#787878"/>
<path d="M171.182 36.6669V11.8731H177.316V14.8466C179.477 11.5198 181.991 11.2185 184.656 11.2185H185.512V17.9205C184.909 17.82 184.306 17.7698 183.701 17.7698C179.679 17.7698 177.718 19.7856 177.718 23.7669V36.6686H171.182V36.6669Z" fill="#787878"/>
<path d="M190.84 25.9836C191.04 29.7121 193.153 32.1314 196.37 32.1314C198.481 32.1314 200.342 31.0733 200.795 29.3605H207.531C206.023 34.4502 201.95 37.3232 196.671 37.3232C188.426 37.3232 184.302 32.7877 184.302 23.8171C184.302 16.1575 188.677 11.2185 196.268 11.2185C203.859 11.2185 207.882 16.1575 207.882 25.9836H190.838H190.84ZM201.147 21.8516C201.047 18.1733 198.633 16.4086 196.069 16.4086C193.506 16.4086 191.294 18.4244 191.042 21.8516H201.147Z" fill="#787878"/>
</svg>
