<?xml version="1.0" encoding="UTF-8"?>
<svg xmlns="http://www.w3.org/2000/svg" width="1366" height="768" viewBox="0 0 1366 768">
  <defs>
    <style>
      .cls-1 {
        fill: #6496ad;
      }

      .cls-2 {
        fill: #787878;
      }

      .cls-3 {
        fill: #e8e8e8;
      }
    </style>
  </defs>
  <g id="Layer_6" data-name="Layer 6">
    <rect class="cls-1" x="83" y="262" width="382" height="224"/>
  </g>
  <g id="Layer_1" data-name="Layer 1">
    <g>
      <path class="cls-3" d="m214.3,278.35h41.32v128.91c0,46.85-28.81,71-79.44,71-46.85,0-76.24-22.12-76.24-68.68v-131.24h41.03v127.46c0,23.86,12.8,38.99,34.63,38.99,25.9,0,38.7-12.22,38.7-37.54v-128.91Z"/>
      <path class="cls-3" d="m357.47,471.58v-86.72c0-22.12-6.4-28.23-24.44-28.23-19.79,0-29.39,11.06-29.39,32.88v82.06h-37.83v-143.17h36.08v20.95c8.73-16,23.28-24.73,46.27-24.73,27.35,0,47.43,16.59,47.43,47.72v99.23h-38.12Z"/>
      <path class="cls-3" d="m407.52,311.24v-35.21h37.83v35.21h-37.83Zm0,160.34v-143.17h37.83v143.17h-37.83Z"/>
      <path class="cls-2" d="m593.75,335.39c-2.04-19.79-13.97-29.39-38.41-29.39-22.7,0-34.63,8.15-34.63,22.7,0,12.22,8.44,19.21,29.97,24.44,21.83,5.24,43.07,10.48,57.33,16.88,16.88,7.57,30.26,19.5,30.26,46.85,0,42.49-32.01,61.4-77.12,61.4-47.72,0-80.9-21.24-81.77-64.6h38.99c.58,19.79,17.17,32.01,43.07,32.01,23.86,0,37.54-10.19,37.54-27.35,0-11.35-5.82-19.21-29.97-24.44-23.86-5.24-39.29-8.73-52.96-14.84-20.66-9.31-32.3-23.28-32.3-47.72,0-34.63,23.57-59.36,70.71-59.36s76.24,26.48,77.7,63.44h-38.41Z"/>
      <path class="cls-2" d="m643.51,539.38v-210.98h36.38l.29,17.46c9.02-14.55,22.41-21.24,39.87-21.24,36.08,0,61.98,28.52,61.98,76.82,0,43.36-21.83,73.91-58.78,73.91-17.75,0-31.72-7.28-42.49-22.41v86.43h-37.25Zm100.1-140.55c0-25.61-13.39-43.36-32.3-43.36s-32.01,16.88-32.01,41.03c0,31.14,10.77,46.56,31.72,46.56,22.12,0,32.59-14.84,32.59-44.23Z"/>
      <path class="cls-2" d="m881.84,471.58v-88.75c0-21.53-7.28-28.23-24.44-28.23-18.92,0-29.39,15.71-29.39,34.92v82.06h-37.83v-195.55h37.83v71c5.53-12.8,22.99-22.41,42.19-22.41,29.39,0,49.76,17.17,49.76,45.69v101.27h-38.12Z"/>
      <path class="cls-2" d="m965.64,409.89c1.16,21.53,13.39,35.5,32.01,35.5,12.22,0,22.99-6.11,25.61-16h38.99c-8.73,29.39-32.3,45.98-62.86,45.98-47.72,0-71.59-26.19-71.59-77.99,0-44.23,25.32-72.75,69.26-72.75s67.22,28.52,67.22,85.26h-98.65Zm59.66-23.86c-.58-21.24-14.55-31.43-29.39-31.43s-27.64,11.64-29.1,31.43h58.49Z"/>
      <path class="cls-2" d="m1071.86,471.58v-143.17h35.5v17.17c12.51-19.21,27.06-20.95,42.49-20.95h4.95v38.7c-3.49-.58-6.98-.87-10.48-.87-23.28,0-34.63,11.64-34.63,34.63v74.5h-37.83Z"/>
      <path class="cls-2" d="m1185.64,409.89c1.16,21.53,13.39,35.5,32.01,35.5,12.22,0,22.99-6.11,25.61-16h38.99c-8.73,29.39-32.3,45.98-62.86,45.98-47.72,0-71.59-26.19-71.59-77.99,0-44.23,25.32-72.75,69.26-72.75s67.22,28.52,67.22,85.26h-98.65Zm59.66-23.86c-.58-21.24-14.55-31.43-29.39-31.43s-27.64,11.64-29.1,31.43h58.49Z"/>
    </g>
  </g>
</svg>